<svg version="1.1" height="40px" id="M" xmlns="http://www.w3.org/2000/svg" x="0px" y="0px" viewBox="0 0 272.55 221.42"><g><path fill="#B39C4D" d="M251.73,154.95L162.05,23.7c-7.19-10.52-19.11-16.81-31.85-16.81s-24.66,6.29-31.85,16.81L8.66,154.95
		c-8.07,11.81-8.94,27.12-2.27,39.77c6.68,12.65,19.81,20.57,34.11,20.57h179.38c14.3,0,27.43-7.92,34.11-20.57
		C260.68,182.07,259.8,166.76,251.73,154.95z M216.63,151.96c-2.75,11.21-11.48,19.98-22.68,22.78L91.17,200.43
		c-11.2,2.8-23.03-0.83-30.73-9.43c-7.7-8.6-10.02-20.75-6.01-31.58l32.59-88.05c3.57-9.64,11.67-16.9,21.64-19.39
		c9.97-2.49,20.54,0.1,28.22,6.93l70.19,62.36C215.7,128.94,219.38,140.75,216.63,151.96z"></path></g><circle fill="#B39C4D" cx="245.5" cy="45.96" r="26.05"></circle></svg>